<svg id="Layer_1" data-name="Layer 1" xmlns="http://www.w3.org/2000/svg" viewBox="0 0 249.5 487.08"><title>logo</title><path d="M322.66,313.73s29.34-211-67.8-290L249.61,9.34a3.56,3.56,0,0,0-6.65-.1l-5.71,14.29C141.83,100.29,175.36,312,175.36,312c-73.76,58-55.82,36.25-13.72,138.48,8,19.52,22.08,14.92,28.44.83l20.4-45.15h6.67l25.77,82.33a7.91,7.91,0,0,0,15.1,0l25.77-82.33h6.11s15.25,32.33,21.94,46.56,20.84,19.15,28.43-.19C380,351.28,397.77,373.41,322.66,313.73ZM247.8,244.86A34.35,34.35,0,0,1,214,211.06a32.5,32.5,0,0,1,33-33,34.35,34.35,0,0,1,33.79,33.8A32.49,32.49,0,0,1,247.8,244.86Z" transform="translate(-125.04 -7)"/></svg>